<svg id="Layer_1" data-name="Layer 1" xmlns="http://www.w3.org/2000/svg" viewBox="0 0 243 154.7"><defs><style>.cls-1{fill:#008296;}.cls-2{fill:#333;}.cls-3{fill:#fff;}</style></defs><path class="cls-1" d="M177.92,132a5.55,5.55,0,0,0-5.55-5.5H144.54V57.35a7.13,7.13,0,0,0-7.13-7.13H118.08c14.15,1.23,21.7,8.19,21.7,27.8,0,23.56-8,29.83-27.36,29.83H102.08v34.06a6.76,6.76,0,0,1-4.47,6.49v.31h74.88a5.55,5.55,0,0,0,5.55-5.6ZM117.33,78c0-8.61-5.19-10.58-9.39-10.58h-5.86V89.2h6.14C113,89.2,117.33,86.63,117.33,78Z" transform="translate(-3.32 -50.22)"/><rect class="cls-2" y="105.7" width="243" height="49"/><path class="cls-3" d="M25.48,167.24a7.24,7.24,0,0,1,2.92,2.83,8.42,8.42,0,0,1,1,4.19,8,8,0,0,1-1.07,4.14,7.08,7.08,0,0,1-3,2.78,10.07,10.07,0,0,1-4.5,1H16.47a.17.17,0,0,0-.19.18V191a.43.43,0,0,1-.12.31.46.46,0,0,1-.31.13H10.74a.42.42,0,0,1-.3-.13.4.4,0,0,1-.13-.31V166.67a.42.42,0,0,1,.13-.31.41.41,0,0,1,.3-.12H21.15A9.07,9.07,0,0,1,25.48,167.24Zm-2.91,9.33a2.77,2.77,0,0,0,.92-2.16,2.9,2.9,0,0,0-.92-2.22,3.43,3.43,0,0,0-2.4-.84h-3.7a.17.17,0,0,0-.19.18v5.69a.17.17,0,0,0,.19.18h3.7A3.47,3.47,0,0,0,22.57,176.57Z" transform="translate(-3.32 -50.22)"/><path class="cls-3" d="M33.53,190a8.3,8.3,0,0,1-3-4.68,11.48,11.48,0,0,1-.44-3.24,12,12,0,0,1,.47-3.5,8,8,0,0,1,3.08-4.44,9.14,9.14,0,0,1,5.45-1.6,8.85,8.85,0,0,1,5.37,1.6,8.36,8.36,0,0,1,3.06,4.41A11.75,11.75,0,0,1,48,182a12.63,12.63,0,0,1-.39,3.17,8.51,8.51,0,0,1-3,4.79A8.72,8.72,0,0,1,39,191.72,8.83,8.83,0,0,1,33.53,190ZM40.77,186a4,4,0,0,0,1-1.82,8.83,8.83,0,0,0,.22-2,8.48,8.48,0,0,0-.25-2.09,3.4,3.4,0,0,0-1-1.73,2.51,2.51,0,0,0-1.73-.61A2.72,2.72,0,0,0,36.3,180a8.92,8.92,0,0,0-.21,2.09,9.42,9.42,0,0,0,.21,2,3.65,3.65,0,0,0,1,1.82,2.46,2.46,0,0,0,1.75.66A2.41,2.41,0,0,0,40.77,186Z" transform="translate(-3.32 -50.22)"/><path class="cls-3" d="M62.24,166.36a.43.43,0,0,1,.31-.12h5.11a.41.41,0,0,1,.3.12.42.42,0,0,1,.13.31V191a.4.4,0,0,1-.13.31.42.42,0,0,1-.3.13H62.55a.44.44,0,0,1-.31-.13.4.4,0,0,1-.13-.31v-1.18c0-.08,0-.12-.07-.13a.16.16,0,0,0-.14.05,4.81,4.81,0,0,1-4.14,2,6.88,6.88,0,0,1-4.34-1.47,8,8,0,0,1-2.68-4,14.46,14.46,0,0,1-.58-4.18,12.75,12.75,0,0,1,.76-4.54,7.86,7.86,0,0,1,2.64-3.6A7.14,7.14,0,0,1,58,172.54a4.7,4.7,0,0,1,3.93,1.69c.05.07.09.09.14.07s.07-.07.07-.14v-7.49A.42.42,0,0,1,62.24,166.36Zm-.13,15.79a6.35,6.35,0,0,0-.68-3.24,2.47,2.47,0,0,0-4.32,0,6.31,6.31,0,0,0-.72,3.21,6.44,6.44,0,0,0,.65,3.09,2.43,2.43,0,0,0,2.27,1.37,2.38,2.38,0,0,0,2.19-1.4A6.52,6.52,0,0,0,62.11,182.15Z" transform="translate(-3.32 -50.22)"/><path class="cls-3" d="M82.87,166.36a.41.41,0,0,1,.3-.12h5.12a.41.41,0,0,1,.3.12.42.42,0,0,1,.13.31V191a.4.4,0,0,1-.13.31.42.42,0,0,1-.3.13H83.17a.42.42,0,0,1-.3-.13.4.4,0,0,1-.13-.31v-1.18c0-.08,0-.12-.07-.13a.16.16,0,0,0-.14.05,4.82,4.82,0,0,1-4.14,2,6.86,6.86,0,0,1-4.34-1.47,7.92,7.92,0,0,1-2.68-4,14.46,14.46,0,0,1-.58-4.18,12.75,12.75,0,0,1,.76-4.54,7.86,7.86,0,0,1,2.64-3.6,7.12,7.12,0,0,1,4.41-1.36,4.7,4.7,0,0,1,3.93,1.69c0,.07.09.09.14.07s.07-.07.07-.14v-7.49A.42.42,0,0,1,82.87,166.36Zm-.13,15.79a6.46,6.46,0,0,0-.68-3.24,2.47,2.47,0,0,0-4.32,0,7.59,7.59,0,0,0-.07,6.3,2.42,2.42,0,0,0,2.26,1.37,2.39,2.39,0,0,0,2.2-1.4A6.52,6.52,0,0,0,82.74,182.15Z" transform="translate(-3.32 -50.22)"/><path class="cls-3" d="M109.2,183.34a.42.42,0,0,1-.47.43h-11a.27.27,0,0,0-.14,0,.1.1,0,0,0,0,.13,5.18,5.18,0,0,0,.36,1,3.22,3.22,0,0,0,1.3,1.23,4.43,4.43,0,0,0,2.12.46,4.52,4.52,0,0,0,3.57-1.47.4.4,0,0,1,.32-.18.36.36,0,0,1,.29.14l2.77,3.17a.34.34,0,0,1,.15.29.43.43,0,0,1-.15.29,8.23,8.23,0,0,1-3.11,2.08,11.13,11.13,0,0,1-4,.72,10.28,10.28,0,0,1-5.56-1.42,8,8,0,0,1-3.3-4,11.75,11.75,0,0,1-.75-4.5,11.49,11.49,0,0,1,.57-3.6,8.3,8.3,0,0,1,8.17-5.72,8.63,8.63,0,0,1,4.25,1,8.28,8.28,0,0,1,3,2.84,10.54,10.54,0,0,1,1.53,4.12A14.28,14.28,0,0,1,109.2,183.34Zm-11.41-3.93a2.87,2.87,0,0,0-.18.76c0,.12,0,.18.14.18h5.12c.09,0,.14,0,.14-.15a2.57,2.57,0,0,0-.14-.72,2.4,2.4,0,0,0-.92-1.36,2.82,2.82,0,0,0-1.68-.47A2.41,2.41,0,0,0,97.79,179.41Z" transform="translate(-3.32 -50.22)"/><path class="cls-3" d="M123.56,173a.46.46,0,0,1,.22.54l-.83,5c0,.29-.19.38-.5.26a5.53,5.53,0,0,0-2.16-.08,3.35,3.35,0,0,0-1.89.87,2.46,2.46,0,0,0-.77,1.91V191a.44.44,0,0,1-.13.31.46.46,0,0,1-.31.13h-5.11a.46.46,0,0,1-.31-.13.43.43,0,0,1-.12-.31V173.26a.43.43,0,0,1,.12-.31.46.46,0,0,1,.31-.13h5.11a.46.46,0,0,1,.31.13.44.44,0,0,1,.13.31v1.15c0,.07,0,.12.07.14s.08,0,.11-.07a4.48,4.48,0,0,1,3.74-1.91A3.69,3.69,0,0,1,123.56,173Z" transform="translate(-3.32 -50.22)"/><path class="cls-1" d="M133.27,191.31a.4.4,0,0,1-.13-.31V166.67a.42.42,0,0,1,.13-.31.41.41,0,0,1,.3-.12h5.11a.43.43,0,0,1,.31.12.42.42,0,0,1,.13.31v19.47a.16.16,0,0,0,.18.18h11.48a.46.46,0,0,1,.31.13.43.43,0,0,1,.12.31V191a.43.43,0,0,1-.12.31.46.46,0,0,1-.31.13H133.57A.42.42,0,0,1,133.27,191.31Z" transform="translate(-3.32 -50.22)"/><path class="cls-1" d="M154.36,170.29a3,3,0,0,1-.88-2.25,3,3,0,0,1,.88-2.27,3.34,3.34,0,0,1,4.5,0,3,3,0,0,1,.89,2.27,3.07,3.07,0,0,1-.89,2.23,3,3,0,0,1-2.25.9A3.08,3.08,0,0,1,154.36,170.29Zm-.65,21a.43.43,0,0,1-.12-.31V173.26a.43.43,0,0,1,.12-.31.46.46,0,0,1,.31-.13h5.11a.46.46,0,0,1,.31.13.43.43,0,0,1,.12.31V191a.43.43,0,0,1-.12.31.46.46,0,0,1-.31.13H154A.46.46,0,0,1,153.71,191.31Z" transform="translate(-3.32 -50.22)"/><path class="cls-1" d="M177.75,174.32a6.5,6.5,0,0,1,1.8,4.84V191a.44.44,0,0,1-.13.31.46.46,0,0,1-.31.13H174a.42.42,0,0,1-.3-.13.4.4,0,0,1-.13-.31V180.46a3,3,0,0,0-.68-2,2.23,2.23,0,0,0-1.77-.79,2.31,2.31,0,0,0-1.8.77,3,3,0,0,0-.68,2V191a.4.4,0,0,1-.13.31.42.42,0,0,1-.3.13h-5.12a.42.42,0,0,1-.3-.13.4.4,0,0,1-.13-.31V173.26a.4.4,0,0,1,.13-.31.42.42,0,0,1,.3-.13h5.12a.42.42,0,0,1,.3.13.4.4,0,0,1,.13.31v1.33c0,.09,0,.15.05.16s.08,0,.13-.09a4.75,4.75,0,0,1,4.32-2.12A6.29,6.29,0,0,1,177.75,174.32Z" transform="translate(-3.32 -50.22)"/><path class="cls-1" d="M182.59,191.31a.4.4,0,0,1-.13-.31V166.67a.42.42,0,0,1,.13-.31.41.41,0,0,1,.3-.12H188a.43.43,0,0,1,.31.12.46.46,0,0,1,.13.31v11.19c0,.08,0,.12.07.13a.16.16,0,0,0,.14-.05l3.93-4.86a.67.67,0,0,1,.54-.26H199c.24,0,.36.09.36.26a.59.59,0,0,1-.1.28l-4.72,6.09a.23.23,0,0,0,0,.25l5.36,11.23a.59.59,0,0,1,.08.22c0,.19-.14.29-.4.29h-5.33a.5.5,0,0,1-.5-.33l-3.28-7.67a.19.19,0,0,0-.12-.09.11.11,0,0,0-.13.06l-1.69,2.41a.53.53,0,0,0-.07.22v5a.44.44,0,0,1-.44.44h-5.11A.42.42,0,0,1,182.59,191.31Z" transform="translate(-3.32 -50.22)"/><path class="cls-1" d="M213,173a.44.44,0,0,1,.31-.13h5.11a.42.42,0,0,1,.3.13.4.4,0,0,1,.13.31V191a.4.4,0,0,1-.13.31.42.42,0,0,1-.3.13h-5.11a.44.44,0,0,1-.44-.44v-1.26c0-.07,0-.12-.07-.14s-.09,0-.14.07a5.15,5.15,0,0,1-4.54,2.05,5.94,5.94,0,0,1-4.43-1.72,6.65,6.65,0,0,1-1.69-4.83V173.26a.4.4,0,0,1,.13-.31.42.42,0,0,1,.3-.13h5.12a.42.42,0,0,1,.3.13.4.4,0,0,1,.13.31V183.8a3,3,0,0,0,.65,2,2.21,2.21,0,0,0,1.76.76A2.36,2.36,0,0,0,212,186a2.53,2.53,0,0,0,.81-1.62V173.26A.44.44,0,0,1,213,173Z" transform="translate(-3.32 -50.22)"/><path class="cls-1" d="M239.92,182.18a12.74,12.74,0,0,1-.76,4.54,7.86,7.86,0,0,1-2.65,3.62,7.07,7.07,0,0,1-4.41,1.38,4.69,4.69,0,0,1-3.92-1.69c-.05-.07-.1-.09-.14-.07a.14.14,0,0,0-.08.14v7.49a.41.41,0,0,1-.43.43h-5.11a.41.41,0,0,1-.43-.43V173.26a.43.43,0,0,1,.12-.31.46.46,0,0,1,.31-.13h5.11a.46.46,0,0,1,.31.13.43.43,0,0,1,.12.31v1.18c0,.08,0,.12.08.13a.17.17,0,0,0,.14,0,4.81,4.81,0,0,1,4.14-2,6.85,6.85,0,0,1,4.32,1.45,8.09,8.09,0,0,1,2.7,4A14.74,14.74,0,0,1,239.92,182.18Zm-6.23-.1A6.1,6.1,0,0,0,233,179a2.43,2.43,0,0,0-2.27-1.37,2.36,2.36,0,0,0-2.19,1.37,6.82,6.82,0,0,0-.62,3.09,6.55,6.55,0,0,0,.69,3.24,2.47,2.47,0,0,0,4.32,0A6.37,6.37,0,0,0,233.69,182.08Z" transform="translate(-3.32 -50.22)"/></svg>